<svg xmlns="http://www.w3.org/2000/svg" viewBox="0 0 750 500"><g id="freepik--Device--inject-6"><rect x="141.93" y="79.36" width="464.45" height="310.69" style="fill:#ebebeb"></rect><rect x="145.31" y="83.15" width="457.7" height="303.11" style="fill:#263238"></rect><rect x="81.44" y="413.34" width="585.44" height="21.32" style="fill:#dbdbdb"></rect><polygon points="81.44 413.34 141.93 390.04 606.39 390.04 666.88 413.34 81.44 413.34" style="fill:#ebebeb"></polygon><polygon points="147.33 405.08 186.37 390.04 561.95 390.04 600.99 405.08 147.33 405.08" style="fill:#263238"></polygon><rect x="171.17" y="106.17" width="405.97" height="257.05" style="fill:#fff"></rect><rect x="171.17" y="116.07" width="398.76" height="46.67" style="fill:#407BFF"></rect><rect x="171.17" y="106.17" width="405.97" height="9.89" style="fill:#455a64"></rect><path d="M179.56,111.12a2.45,2.45,0,1,1-2.45-2.45A2.45,2.45,0,0,1,179.56,111.12Z" style="fill:#c7c7c7"></path><path d="M189.58,111.12a2.46,2.46,0,1,1-2.45-2.45A2.45,2.45,0,0,1,189.58,111.12Z" style="fill:#fff"></path><path d="M199.6,111.12a2.46,2.46,0,1,1-2.46-2.45A2.46,2.46,0,0,1,199.6,111.12Z" style="fill:#407BFF"></path><rect x="569.94" y="116.07" width="7.21" height="247.16" style="fill:#dbdbdb"></rect><path d="M573.54,201.75h0a1.86,1.86,0,0,1-1.86-1.86V119.37a1.86,1.86,0,0,1,1.86-1.86h0a1.86,1.86,0,0,1,1.86,1.86v80.52A1.86,1.86,0,0,1,573.54,201.75Z" style="fill:#a6a6a6"></path><rect x="273.54" y="181.62" width="72.45" height="55.58" transform="translate(619.53 418.82) rotate(180)" style="fill:#407BFF"></rect><path d="M280.75,193.77a6.58,6.58,0,1,0,5.17-5.16A6.58,6.58,0,0,0,280.75,193.77Z" style="fill:#fff;opacity:0.6000000000000001"></path><polygon points="297.44 225.22 345.99 225.22 321.71 195.31 297.44 225.22" style="fill:#407BFF"></polygon><polygon points="297.44 225.22 345.99 225.22 321.71 195.31 297.44 225.22" style="opacity:0.2"></polygon><polygon points="273.54 225.25 316.59 225.25 295.07 205.77 273.54 225.25" style="fill:#407BFF"></polygon><polygon points="273.54 225.25 316.59 225.25 295.07 205.77 273.54 225.25" style="opacity:0.1"></polygon><rect x="273.54" y="225.23" width="72.45" height="11.98" style="fill:#407BFF"></rect><rect x="273.54" y="225.23" width="72.45" height="11.98" style="opacity:0.1"></rect><rect x="370.56" y="181.8" width="72.45" height="85.4" transform="translate(813.56 449) rotate(180)" style="fill:#455a64"></rect><path d="M377.77,206.49a6.58,6.58,0,1,0,5.16-5.16A6.59,6.59,0,0,0,377.77,206.49Z" style="fill:#fff;opacity:0.6000000000000001"></path><polygon points="394.46 237.95 443 237.95 418.73 208.03 394.46 237.95" style="fill:#263238"></polygon><polygon points="370.56 237.97 413.61 237.97 392.08 218.49 370.56 237.97" style="fill:#37474f"></polygon><rect x="370.56" y="237.95" width="72.45" height="29.25" style="fill:#37474f"></rect><path d="M273.54,245.7c4.92-.15,9.84-.23,14.76-.29l14.76-.08,14.76.08c4.92.06,9.85.13,14.77.29-4.92.16-9.85.23-14.77.29l-14.76.08L288.3,246C283.38,245.93,278.46,245.85,273.54,245.7Z" style="fill:#c7c7c7"></path><path d="M273.54,251.83c3.7-.16,7.39-.23,11.09-.29s7.39-.06,11.09-.09l11.09.09c3.7.06,7.39.13,11.09.29-3.7.15-7.39.22-11.09.29l-11.09.08c-3.7,0-7.39,0-11.09-.09S277.24,252,273.54,251.83Z" style="fill:#c7c7c7"></path><polygon points="372.06 345.26 370.18 345.26 370.18 343.39 370.93 343.39 370.93 344.51 372.06 344.51 372.06 345.26" style="fill:#c7c7c7"></polygon><path d="M438.48,345.26h-3v-.75h3Zm-6,0h-3v-.75h3Zm-6,0h-3v-.75h3Zm-6,0h-3v-.75h3Zm-6,0h-3v-.75h3Zm-6,0h-3v-.75h3Zm-6,0h-3v-.75h3Zm-6,0h-3v-.75h3Zm-6,0h-3v-.75h3Zm-6,0h-3v-.75h3Zm-6,0h-3v-.75h3Z" style="fill:#c7c7c7"></path><polygon points="443.38 345.26 441.5 345.26 441.5 344.51 442.63 344.51 442.63 343.39 443.38 343.39 443.38 345.26" style="fill:#c7c7c7"></polygon><path d="M443.38,340.29h-.75V337.2h.75Zm0-6.18h-.75V331h.75Zm0-6.19h-.75v-3.09h.75Zm0-6.19h-.75v-3.09h.75Zm0-6.18h-.75v-3.09h.75Zm0-6.19h-.75v-3.09h.75Zm0-6.19h-.75v-3.09h.75Zm0-6.18h-.75V293.9h.75Z" style="fill:#c7c7c7"></path><polygon points="443.38 290.8 442.63 290.8 442.63 289.68 441.5 289.68 441.5 288.93 443.38 288.93 443.38 290.8" style="fill:#c7c7c7"></polygon><path d="M438.48,289.68h-3v-.75h3Zm-6,0h-3v-.75h3Zm-6,0h-3v-.75h3Zm-6,0h-3v-.75h3Zm-6,0h-3v-.75h3Zm-6,0h-3v-.75h3Zm-6,0h-3v-.75h3Zm-6,0h-3v-.75h3Zm-6,0h-3v-.75h3Zm-6,0h-3v-.75h3Zm-6,0h-3v-.75h3Z" style="fill:#c7c7c7"></path><polygon points="370.93 290.8 370.18 290.8 370.18 288.93 372.06 288.93 372.06 289.68 370.93 289.68 370.93 290.8" style="fill:#c7c7c7"></polygon><path d="M370.93,340.29h-.75V337.2h.75Zm0-6.18h-.75V331h.75Zm0-6.19h-.75v-3.09h.75Zm0-6.19h-.75v-3.09h.75Zm0-6.18h-.75v-3.09h.75Zm0-6.19h-.75v-3.09h.75Zm0-6.19h-.75v-3.09h.75Zm0-6.18h-.75V293.9h.75Z" style="fill:#c7c7c7"></path><polygon points="469.52 237.13 467.64 237.13 467.64 235.25 468.39 235.25 468.39 236.38 469.52 236.38 469.52 237.13" style="fill:#c7c7c7"></polygon><path d="M535.94,237.13h-3v-.75h3Zm-6,0h-3v-.75h3Zm-6,0h-3v-.75h3Zm-6,0h-3v-.75h3Zm-6,0h-3v-.75h3Zm-6,0h-3v-.75h3Zm-6,0h-3v-.75h3Zm-6,0h-3v-.75h3Zm-6,0h-3v-.75h3Zm-6,0h-3v-.75h3Zm-6,0h-3v-.75h3Z" style="fill:#c7c7c7"></path><polygon points="540.84 237.13 538.96 237.13 538.96 236.38 540.09 236.38 540.09 235.25 540.84 235.25 540.84 237.13" style="fill:#c7c7c7"></polygon><path d="M540.84,232.16h-.75v-3.09h.75Zm0-6.19h-.75v-3.09h.75Zm0-6.18h-.75v-3.1h.75Zm0-6.19h-.75v-3.09h.75Zm0-6.19h-.75v-3.09h.75Zm0-6.18h-.75v-3.1h.75Zm0-6.19h-.75V192h.75Zm0-6.19h-.75v-3.09h.75Z" style="fill:#c7c7c7"></path><polygon points="540.84 182.67 540.09 182.67 540.09 181.54 538.96 181.54 538.96 180.79 540.84 180.79 540.84 182.67" style="fill:#c7c7c7"></polygon><path d="M535.94,181.54h-3v-.75h3Zm-6,0h-3v-.75h3Zm-6,0h-3v-.75h3Zm-6,0h-3v-.75h3Zm-6,0h-3v-.75h3Zm-6,0h-3v-.75h3Zm-6,0h-3v-.75h3Zm-6,0h-3v-.75h3Zm-6,0h-3v-.75h3Zm-6,0h-3v-.75h3Zm-6,0h-3v-.75h3Z" style="fill:#c7c7c7"></path><polygon points="468.39 182.67 467.64 182.67 467.64 180.79 469.52 180.79 469.52 181.54 468.39 181.54 468.39 182.67" style="fill:#c7c7c7"></polygon><path d="M468.39,232.16h-.75v-3.09h.75Zm0-6.19h-.75v-3.09h.75Zm0-6.18h-.75v-3.1h.75Zm0-6.19h-.75v-3.09h.75Zm0-6.19h-.75v-3.09h.75Zm0-6.18h-.75v-3.1h.75Zm0-6.19h-.75V192h.75Zm0-6.19h-.75v-3.09h.75Z" style="fill:#c7c7c7"></path><path d="M370.56,353.39c4.92-.16,9.84-.23,14.76-.29l14.76-.09,14.76.09c4.92.06,9.84.13,14.76.29-4.92.15-9.84.22-14.76.28l-14.76.09-14.76-.09C380.4,353.61,375.48,353.54,370.56,353.39Z" style="fill:#c7c7c7"></path><path d="M370.56,359.51c3.69-.15,7.39-.22,11.09-.28s7.39-.06,11.08-.09l11.09.08c3.7.06,7.4.14,11.09.29-3.69.16-7.39.23-11.09.29l-11.09.09c-3.69,0-7.39,0-11.08-.09S374.25,359.67,370.56,359.51Z" style="fill:#c7c7c7"></path><path d="M370.56,275.7c4.92-.15,9.84-.23,14.76-.29l14.76-.08,14.76.08c4.92.06,9.84.13,14.76.29-4.92.16-9.84.23-14.76.29l-14.76.08L385.32,276C380.4,275.93,375.48,275.85,370.56,275.7Z" style="fill:#c7c7c7"></path><path d="M370.56,281.83c3.69-.16,7.39-.23,11.09-.29s7.39-.06,11.08-.09l11.09.09c3.7.06,7.4.13,11.09.29-3.69.15-7.39.22-11.09.29l-11.09.08c-3.69,0-7.39,0-11.08-.09S374.25,282,370.56,281.83Z" style="fill:#c7c7c7"></path><rect x="273.54" y="259.49" width="72.45" height="85.4" transform="translate(619.53 604.39) rotate(180)" style="fill:#407BFF"></rect><rect x="273.54" y="259.49" width="72.45" height="85.4" transform="translate(619.53 604.39) rotate(180)" style="opacity:0.2"></rect><path d="M280.75,284.19a6.58,6.58,0,1,0,5.17-5.17A6.59,6.59,0,0,0,280.75,284.19Z" style="fill:#fff;opacity:0.6000000000000001"></path><polygon points="297.44 315.64 345.99 315.64 321.71 285.73 297.44 315.64" style="fill:#407BFF"></polygon><polygon points="297.44 315.64 345.99 315.64 321.71 285.73 297.44 315.64" style="opacity:0.4"></polygon><polygon points="273.54 315.67 316.59 315.67 295.07 296.19 273.54 315.67" style="fill:#407BFF"></polygon><polygon points="273.54 315.67 316.59 315.67 295.07 296.19 273.54 315.67" style="opacity:0.30000000000000004"></polygon><rect x="273.54" y="315.64" width="72.45" height="29.25" style="opacity:0.1"></rect><path d="M273.54,353.39c4.92-.15,9.84-.22,14.76-.28l14.76-.09,14.76.08c4.92.06,9.85.14,14.77.29-4.92.16-9.85.23-14.77.29l-14.76.09-14.76-.09C283.38,353.62,278.46,353.55,273.54,353.39Z" style="fill:#c7c7c7"></path><path d="M273.54,359.52c3.7-.16,7.39-.23,11.09-.29s7.39-.05,11.09-.08l11.09.08c3.7.06,7.39.13,11.09.29-3.7.16-7.39.23-11.09.29l-11.09.08c-3.7,0-7.39,0-11.09-.08S277.24,359.67,273.54,359.52Z" style="fill:#c7c7c7"></path><path d="M540.84,345.27H540v-.75h.07v-2.18h.75Zm-3.82,0h-3v-.75h3Zm-6,0h-3v-.75h3Zm-6,0h-3v-.75h3Zm-6,0h-3v-.75h3Zm-6,0h-3v-.75h3Zm-6,0h-3v-.75h3Zm-6,0h-3v-.75h3Zm-6,0h-3v-.75h3Zm-6,0h-3v-.75h3Zm-6,0h-3v-.75h3Zm-6,0h-3v-.75h3Zm-6,0h-3v-.75h3Zm-2.63-1.08h-.75v-3h.75Zm72.45-4.85h-.75v-3h.75Zm-72.45-1.15h-.75v-3h.75Zm72.45-4.85h-.75v-3h.75Zm-72.45-1.15h-.75v-3h.75Zm72.45-4.85h-.75v-3h.75Zm-72.45-1.15h-.75v-3h.75Zm72.45-4.85h-.75v-3h.75Zm-72.45-1.15h-.75v-3h.75Zm72.45-4.85h-.75v-3h.75Zm-72.45-1.15h-.75v-3h.75Zm72.45-4.85h-.75v-3h.75Zm-72.45-1.15h-.75v-3h.75Zm72.45-4.85h-.75v-3h.75Zm-72.45-1.15h-.75v-3h.75Zm72.45-4.85h-.75v-3h.75Zm-72.45-1.15h-.75v-3h.75Zm72.45-4.85h-.75v-3h.75Zm-72.45-1.15h-.75v-3h.75Zm72.45-4.85h-.75v-3h.75Zm-72.45-1.15h-.75v-3h.75Zm72.45-4.85h-.75v-3h.75Zm-72.45-1.15h-.75v-3h.75Zm72.45-4.85h-.75v-3h.75Zm-72.45-1.15h-.75v-3h.75Zm72.45-4.85h-.75v-3h.75Zm-72.45-1.15h-.75v-3h.75Zm72.45-4.85h-.75v-1.47h-.78v-.75h1.53Zm-72.45-1.15h-.75v-1.07h2.67v.75h-1.92Zm67.92-.32h-3v-.75h3Zm-6,0h-3v-.75h3Zm-6,0h-3v-.75h3Zm-6,0h-3v-.75h3Zm-6,0h-3v-.75h3Zm-6,0h-3v-.75h3Zm-6,0h-3v-.75h3Zm-6,0h-3v-.75h3Zm-6,0h-3v-.75h3Zm-6,0h-3v-.75h3Zm-6,0h-3v-.75h3Z" style="fill:#c7c7c7"></path><path d="M468,353.39c4.92-.15,9.84-.22,14.76-.28l14.76-.09,14.76.08c4.92.06,9.84.14,14.76.29-4.92.16-9.84.23-14.76.29l-14.76.09-14.76-.09C477.86,353.62,472.94,353.55,468,353.39Z" style="fill:#c7c7c7"></path><path d="M468,359.52c3.69-.16,7.39-.23,11.09-.29s7.39-.05,11.09-.08l11.09.08c3.69.06,7.39.13,11.09.29-3.7.16-7.4.23-11.09.29l-11.09.08c-3.7,0-7.4,0-11.09-.08S471.71,359.67,468,359.52Z" style="fill:#c7c7c7"></path><path d="M467.57,245.7c4.92-.15,9.84-.23,14.76-.29l14.76-.08,14.77.08c4.92.06,9.84.13,14.76.29-4.92.16-9.84.23-14.76.29l-14.77.08L482.33,246C477.41,245.93,472.49,245.85,467.57,245.7Z" style="fill:#c7c7c7"></path><path d="M467.57,251.83c3.7-.16,7.39-.23,11.09-.29s7.39-.06,11.09-.09l11.09.09c3.7.06,7.39.13,11.09.29-3.7.15-7.39.22-11.09.29l-11.09.08c-3.7,0-7.39,0-11.09-.09S471.27,252,467.57,251.83Z" style="fill:#c7c7c7"></path><rect x="191.53" y="205.93" width="39.13" height="5.17" style="fill:#37474f"></rect><rect x="191.53" y="213.91" width="33.56" height="2.41" style="fill:#455a64"></rect><path d="M202.91,225.44c3.69-.16,7.39-.23,11.09-.29s7.39-.06,11.08-.09l11.09.09c3.7.06,7.4.13,11.09.29-3.69.15-7.39.23-11.09.29l-11.09.08c-3.69,0-7.39,0-11.08-.08S206.6,225.59,202.91,225.44Z" style="fill:#c7c7c7"></path><path d="M202.91,231.57c3.69-.16,7.39-.23,11.09-.29s7.39-.06,11.08-.09l11.09.09c3.7.06,7.4.13,11.09.29-3.69.15-7.39.22-11.09.28l-11.09.09c-3.69,0-7.39,0-11.08-.09S206.6,231.72,202.91,231.57Z" style="fill:#c7c7c7"></path><path d="M202.91,237.69c3.69-.15,7.39-.23,11.09-.29s7.39-.05,11.08-.08l11.09.08c3.7.06,7.4.14,11.09.29-3.69.16-7.39.23-11.09.29l-11.09.09c-3.69,0-7.39,0-11.08-.09S206.6,237.85,202.91,237.69Z" style="fill:#c7c7c7"></path><path d="M202.91,243.82c3.69-.16,7.39-.23,11.09-.29s7.39-.05,11.08-.09l11.09.09c3.7.06,7.4.13,11.09.29-3.69.15-7.39.23-11.09.29l-11.09.08c-3.69,0-7.39,0-11.08-.08S206.6,244,202.91,243.82Z" style="fill:#c7c7c7"></path><path d="M202.91,256.07c3.69-.15,7.39-.22,11.09-.28s7.39-.06,11.08-.09l11.09.08c3.7.06,7.4.14,11.09.29-3.69.16-7.39.23-11.09.29l-11.09.09c-3.69,0-7.39,0-11.08-.09S206.6,256.23,202.91,256.07Z" style="fill:#c7c7c7"></path><path d="M202.91,262.2c3.69-.16,7.39-.23,11.09-.29s7.39-.05,11.08-.09l11.09.09c3.7.06,7.4.13,11.09.29-3.69.15-7.39.23-11.09.29l-11.09.08c-3.69,0-7.39,0-11.08-.08S206.6,262.35,202.91,262.2Z" style="fill:#c7c7c7"></path><path d="M202.91,268.33c3.69-.16,7.39-.23,11.09-.29s7.39-.06,11.08-.09l11.09.09c3.7.06,7.4.13,11.09.29-3.69.15-7.39.22-11.09.28l-11.09.09c-3.69,0-7.39,0-11.08-.09S206.6,268.48,202.91,268.33Z" style="fill:#c7c7c7"></path><path d="M202.91,280.58c3.69-.16,7.39-.23,11.09-.29s7.39-.05,11.08-.09l11.09.09c3.7.06,7.4.13,11.09.29-3.69.16-7.39.23-11.09.29l-11.09.08c-3.69,0-7.39,0-11.08-.08S206.6,280.73,202.91,280.58Z" style="fill:#c7c7c7"></path><path d="M202.91,286.71c3.69-.16,7.39-.23,11.09-.29s7.39-.06,11.08-.09l11.09.09c3.7.06,7.4.13,11.09.29-3.69.15-7.39.22-11.09.28l-11.09.09c-3.69,0-7.39,0-11.08-.09S206.6,286.86,202.91,286.71Z" style="fill:#c7c7c7"></path><path d="M202.91,292.83c3.69-.15,7.39-.22,11.09-.28s7.39-.06,11.08-.09l11.09.08c3.7.06,7.4.14,11.09.29-3.69.16-7.39.23-11.09.29l-11.09.09c-3.69,0-7.39,0-11.08-.09S206.6,293,202.91,292.83Z" style="fill:#c7c7c7"></path><path d="M191.53,299.17c3.69-.15,7.39-.22,11.09-.28s7.39-.06,11.09-.09l11.09.08c3.69.06,7.39.14,11.09.29-3.7.16-7.4.23-11.09.29l-11.09.09c-3.7,0-7.4,0-11.09-.09S195.22,299.33,191.53,299.17Z" style="fill:#c7c7c7"></path><path d="M191.53,323.48c3.69-.16,7.39-.23,11.09-.29s7.39-.06,11.09-.09l11.09.09c3.69.06,7.39.13,11.09.29-3.7.15-7.4.22-11.09.28l-11.09.09c-3.7,0-7.4,0-11.09-.09S195.22,323.63,191.53,323.48Z" style="fill:#c7c7c7"></path><path d="M191.53,327.3c3-.15,5.94-.23,8.91-.29s5.94-.05,8.91-.08,5.94,0,8.91.08,5.94.13,8.91.29c-3,.16-5.94.23-8.91.29s-5.94.06-8.91.08-5.94,0-8.91-.08S194.5,327.45,191.53,327.3Z" style="fill:#c7c7c7"></path><path d="M200.2,309.3v6.21a.05.05,0,0,0,0,0,1.53,1.53,0,0,1-1.11,1.24l-.17,0h-1.7a.31.31,0,0,0,0-.1v-3.24h1.37s.08,0,.08-.08v-1.32a.22.22,0,0,0,0-.08h-1.43c0-.24,0-.46,0-.69a.32.32,0,0,1,.34-.3h1.09v-1.47h-1.12a1.49,1.49,0,0,0-.87.27,1.88,1.88,0,0,0-.77,1.29c0,.27,0,.54,0,.81V312h-1.05a.43.43,0,0,1,0,.05v1.37c0,.06,0,.06.07.06h1v3.34H192.8a1.38,1.38,0,0,1-.57-.22,1.49,1.49,0,0,1-.64-.85l-.06-.24v-6.24a1.4,1.4,0,0,1,.21-.57,1.47,1.47,0,0,1,.83-.66,1.05,1.05,0,0,1,.24-.06h6.12a1.53,1.53,0,0,1,1.22,1.14Z" style="fill:#407BFF"></path><path d="M215.05,308h-6a1.33,1.33,0,0,0-1.33,1.35v6.15a1.33,1.33,0,0,0,1.33,1.35h6a1.33,1.33,0,0,0,1.32-1.35v-6.15A1.33,1.33,0,0,0,215.05,308Zm.41,2.24s0,0,0,.08a2.5,2.5,0,0,1-.58.59.17.17,0,0,0-.06.15,4.15,4.15,0,0,1-.48,2,3.83,3.83,0,0,1-2.53,2.05,4.08,4.08,0,0,1-2.37-.1l-.1,0-.4-.2-.29-.17a3,3,0,0,0,2-.61l-.29-.06a1.41,1.41,0,0,1-1-.86.12.12,0,0,1,0-.08s0,0,.08,0a1.23,1.23,0,0,0,.5,0,.52.52,0,0,0-.19-.08,1.44,1.44,0,0,1-.91-1.23c0-.13,0-.13.11-.08a1.47,1.47,0,0,0,.52.12,1.57,1.57,0,0,1-.34-.34,1.44,1.44,0,0,1-.13-1.52c0-.06,0-.08.1,0a3.92,3.92,0,0,0,2.35,1.39c.13,0,.27,0,.41.06s.11,0,.09-.1a1.43,1.43,0,0,1,1.19-1.66,1.31,1.31,0,0,1,1.18.38s.08.06.14,0a3.68,3.68,0,0,0,.66-.23.45.45,0,0,0,.13-.11.88.88,0,0,1-.2.46,2.26,2.26,0,0,1-.35.34,3.33,3.33,0,0,0,.75-.2Z" style="fill:#407BFF"></path><path d="M232.52,312.3c0-.71,0-1.42,0-2.14a4.49,4.49,0,0,0,0-.51,1.84,1.84,0,0,0-1.2-1.54,2.86,2.86,0,0,0-1-.13h-4.06c-.22,0-.45,0-.66,0A1.83,1.83,0,0,0,224,309.2a2.9,2.9,0,0,0-.14,1c0,1.44,0,2.88,0,4.32a5.49,5.49,0,0,0,.05.7,1.8,1.8,0,0,0,1,1.35,2.41,2.41,0,0,0,1.09.21h4.31a2.78,2.78,0,0,0,.64-.06,1.75,1.75,0,0,0,1.4-1.17,2.72,2.72,0,0,0,.15-1V312.3Zm-1.11,1.3a2,2,0,0,1-1.6,2,1.87,1.87,0,0,1-.42,0H227a2,2,0,0,1-2-1.64,2.85,2.85,0,0,1,0-.41v-2.45a2,2,0,0,1,1.52-2,2.22,2.22,0,0,1,.51-.06h1.18c.46,0,.91,0,1.37,0a2,2,0,0,1,1.78,1.58,1.83,1.83,0,0,1,0,.47Z" style="fill:#407BFF"></path><path d="M229.25,312.4a1,1,0,1,1-1-1.07A1,1,0,0,1,229.25,312.4Z" style="fill:#407BFF"></path><path d="M229.42,309.68H227a1.45,1.45,0,0,0-1.44,1.47v2.49A1.45,1.45,0,0,0,227,315.1h2.44a1.44,1.44,0,0,0,1.43-1.46v-2.49A1.43,1.43,0,0,0,229.42,309.68ZM228.2,314a1.63,1.63,0,1,1,1.6-1.63A1.62,1.62,0,0,1,228.2,314Zm1.75-3a.4.4,0,0,1-.39-.41.4.4,0,1,1,.39.41Z" style="fill:#407BFF"></path><path d="M253.17,146a12.13,12.13,0,0,1-2.08-6.71c0-8.5,9.34-15.39,20.85-15.39s20.84,6.89,20.84,15.39-9.33,15.4-20.84,15.4a25.06,25.06,0,0,1-14.38-4.26l-7.18,1.83Z" style="fill:#fff"></path><path d="M263.68,136.45v5.75H263v-2.62h-3.17v2.62h-.73v-5.75h.73v2.48H263v-2.48Z"></path><path d="M269,141.55v.65h-3.9v-5.75h3.83v.64h-3.11V139h2.7v.6h-2.7v2Z"></path><path d="M270,142.2v-5.75h.72v5.1h3.21v.65Z"></path><path d="M274.69,142.2v-5.75h.73v5.1h3.2v.65Z"></path><path d="M281.57,142.24a2.37,2.37,0,0,1-1.1-.25,2.54,2.54,0,0,1-.86-.66,2.9,2.9,0,0,1-.55-.93,3.07,3.07,0,0,1-.19-1.08,3,3,0,0,1,.77-2,2.8,2.8,0,0,1,.87-.65,2.44,2.44,0,0,1,1.08-.23,2.37,2.37,0,0,1,1.1.25,2.77,2.77,0,0,1,.85.67,3,3,0,0,1,.55.93,3.07,3.07,0,0,1,.2,1.07,3,3,0,0,1-.21,1.1,3.14,3.14,0,0,1-.57.93,2.62,2.62,0,0,1-.86.64A2.44,2.44,0,0,1,281.57,142.24Zm-2-2.92a2.45,2.45,0,0,0,.15.85,2.12,2.12,0,0,0,.4.72,2,2,0,0,0,.62.51,1.79,1.79,0,0,0,.81.18,1.65,1.65,0,0,0,.83-.2,1.94,1.94,0,0,0,.62-.52,2.07,2.07,0,0,0,.38-.72,2.57,2.57,0,0,0,.14-.82,2.75,2.75,0,0,0-.14-.85,2.32,2.32,0,0,0-.41-.72,2,2,0,0,0-.62-.49,1.66,1.66,0,0,0-.8-.19,1.75,1.75,0,0,0-.83.19,2,2,0,0,0-.62.51,2.33,2.33,0,0,0-.39.73A2.57,2.57,0,0,0,279.6,139.32Z"></path><path d="M285.31,140.25v-3.86H286v3.86Zm0,1.95v-1H286v1Z"></path></g><g id="freepik--character-2--inject-6"><circle cx="219.29" cy="162.73" r="27.98" transform="translate(-50.84 202.72) rotate(-45)" style="fill:#455a64"></circle><path d="M223.3,177.15l-.08.13-.74,1.24c-.88,1.46-2.36,3.94-4,6.7L217,187.69l-.18.29-1.45,2.45a27.19,27.19,0,0,1-7.57-2.19c-.26-.1-.51-.22-.77-.35-.43-.21-.86-.43-1.28-.66l-.31-.19a.4.4,0,0,1-.15-.09h0a.61.61,0,0,0-.07.1.61.61,0,0,0,.07-.1c-.16-.08-.32-.18-.48-.28a28.1,28.1,0,0,1-7.77-7,10.31,10.31,0,0,1,2.52-2.66c3.15-2.11,9-2.61,14.32-2.13a39.81,39.81,0,0,1,4,.55A20.18,20.18,0,0,1,223.3,177.15Z" style="fill:#c7c7c7"></path><path d="M231.85,187.73a27.63,27.63,0,0,1-12.31,3h-.7a24.74,24.74,0,0,1-3.47-.27,27.19,27.19,0,0,1-7.57-2.19c-.26-.1-.51-.22-.77-.35-.43-.21-.86-.43-1.28-.66l-.31-.19c.73-1,1.53-2.12,2.42-3.21a60.08,60.08,0,0,1,5.37-5.7,4.56,4.56,0,0,1,.65-.51,8.4,8.4,0,0,1,5-1.17,15,15,0,0,1,4.34.83,12.87,12.87,0,0,1,3.18,1.54,6.86,6.86,0,0,1,1.53,1.37l.16.2A35.24,35.24,0,0,1,231.85,187.73Z" style="fill:#c7c7c7"></path><path d="M208.28,183.15c-.14.23-.27.45-.42.68-.69,1.14-1.4,2.27-2.11,3.4l-.31-.19a.4.4,0,0,1-.15-.09C206.25,185.65,207.23,184.38,208.28,183.15Z" style="fill:#263238"></path><path d="M205.9,184.33a7.37,7.37,0,0,1-.46,2.15c-.06.15-.11.31-.18.46-.16-.08-.32-.18-.48-.28,0-.13.09-.25.13-.38A7.8,7.8,0,0,1,205.9,184.33Z" style="fill:#263238"></path><path d="M218.84,190.7a24.74,24.74,0,0,1-3.47-.27,27.19,27.19,0,0,1-7.57-2.19c1.71-3,5.19-4.56,9-.26a15.15,15.15,0,0,1,1.22,1.56Z" style="fill:#d3766a"></path><path d="M219.54,190.7h-.7a24.74,24.74,0,0,1-3.47-.27,27.19,27.19,0,0,1-7.57-2.19c-.26-.1-.51-.22-.77-.35,1.33-4.38,4.83-5.54,10-.2A32.61,32.61,0,0,1,219.54,190.7Z" style="fill:#c7c7c7"></path><path d="M225.38,188.15c-2.56.5-8.64-3.51-11.34-7.25-.18-.26-.12-3.21-.21-6.81-.07-2.18-.19-4.6-.47-6.81-.06-.45,1.59.19,1.59.19l2.94.33,9.73,1.12a35.43,35.43,0,0,0-.29,8.64,5.53,5.53,0,0,0,.21.89,1.55,1.55,0,0,1,0,.15C228.07,180.29,229.38,187.37,225.38,188.15Z" style="fill:#d3766a"></path><path d="M227.54,178.45a1.55,1.55,0,0,1,0,.15,8.25,8.25,0,0,1-1.41.25c-9.35,1-12-10.75-12-10.75l3.7-.3,9.73,1.12a35.43,35.43,0,0,0-.29,8.64A5.53,5.53,0,0,0,227.54,178.45Z" style="fill:#263238"></path><path d="M210.79,148.61c-1.5,4.95,1.15,19.22,4.68,22.4,5.11,4.6,13.45,5,17.36-1.11,3.79-6,0-24.5-3.93-27.38C223.11,138.27,213,141.3,210.79,148.61Z" style="fill:#d3766a"></path><path d="M223.77,156.93s-.06.06-.05.1c.25.95.37,2.07-.42,2.59,0,0,0,.06,0,0C224.34,159.28,224.16,157.79,223.77,156.93Z" style="fill:#263238"></path><path d="M222.7,156.13c-1.56.23-1,3.33.46,3.12S224,155.93,222.7,156.13Z" style="fill:#263238"></path><path d="M229.48,155.71s.08,0,.09.07c.15,1,.48,2.05,1.41,2.21a0,0,0,0,1,0,0C229.89,158.09,229.46,156.65,229.48,155.71Z" style="fill:#263238"></path><path d="M230.15,154.54c1.53-.4,2.22,2.68.81,3.05S228.87,154.88,230.15,154.54Z" style="fill:#263238"></path><path d="M221.21,154.93a12.43,12.43,0,0,0,1.12-.64,2,2,0,0,0,1-.88.64.64,0,0,0-.25-.77,1.65,1.65,0,0,0-1.67.13,2.46,2.46,0,0,0-1.19,1.29A.71.71,0,0,0,221.21,154.93Z" style="fill:#263238"></path><path d="M231,153.13a11.18,11.18,0,0,1-1.29-.09,2.09,2.09,0,0,1-1.3-.34.67.67,0,0,1-.11-.81,1.65,1.65,0,0,1,1.56-.61,2.46,2.46,0,0,1,1.63.65A.71.71,0,0,1,231,153.13Z" style="fill:#263238"></path><path d="M224.59,166.05c.27.18.56.45.92.41a2.54,2.54,0,0,0,1-.43,0,0,0,0,1,.06,0,1.36,1.36,0,0,1-1.13.75,1.06,1.06,0,0,1-.91-.71C224.48,166.05,224.55,166,224.59,166.05Z" style="fill:#263238"></path><path d="M225.07,163a3.36,3.36,0,0,0,2.46,1.05,4,4,0,0,0,1.18-.16,1.14,1.14,0,0,0,.22-.07l.21-.07a.24.24,0,0,0,.15-.25h0a.54.54,0,0,0,0-.1h0l0-.09c-.11-.74-.39-1.85-.39-1.85.29.08,1.79.45,1.69.06a50,50,0,0,0-3.1-9.67.09.09,0,0,0-.17.06c.63,3.07,1.8,6,2.48,9.09a5.61,5.61,0,0,0-1.63-.18c-.1,0,.58,2.14.61,2.47v0a4.63,4.63,0,0,1-3.59-.42C225.06,162.83,225,162.91,225.07,163Z" style="fill:#263238"></path><path d="M228.21,163.57a4,4,0,0,1-1.34,1.5,1.74,1.74,0,0,1-1,.26c-.81-.06-1-.76-.93-1.39a4.21,4.21,0,0,1,.17-1A5.15,5.15,0,0,0,228.21,163.57Z" style="fill:#263238"></path><path d="M226.87,165.07a1.74,1.74,0,0,1-1,.26c-.81-.06-1-.76-.93-1.39A1.82,1.82,0,0,1,226.87,165.07Z" style="fill:#ff9bbc"></path><path d="M211.48,162.32c2.6-1.06,3-10.22,3-10.22s.4,3.82,1.1,3.65,3.07-5.68,3-9.43a29.38,29.38,0,0,0,7.17,2.57c3.51.64,7.24,0,7.18-.58-.19-1.72-2.25-6.05-4.76-7.38a12.22,12.22,0,0,0-12.26-.15c-5.31,2.74-6.38,6.47-6.89,9.32S210.52,162.71,211.48,162.32Z" style="fill:#263238"></path><path d="M226.71,156.73h0a2.78,2.78,0,0,0-.12-.38,2,2,0,0,0-.11-.26,4.58,4.58,0,0,0-5.77-2.49,2.52,2.52,0,0,0-.29.12,4.59,4.59,0,0,0-2.73,3.85,4.14,4.14,0,0,0,0,.61,4.29,4.29,0,0,0,.26,1.3,4.61,4.61,0,0,0,4.77,3,4.81,4.81,0,0,0,1.11-.25,4.59,4.59,0,0,0,3-4.33A4.27,4.27,0,0,0,226.71,156.73Zm-3.08,4.92a4,4,0,0,1-3.4-7.16,3.66,3.66,0,0,1,.69-.33,4.13,4.13,0,0,1,1-.21,4,4,0,0,1,4.13,2.6A4,4,0,0,1,223.63,161.65Z" style="fill:#407BFF"></path><path d="M235.67,154.91A5.54,5.54,0,0,0,234,152a3.56,3.56,0,0,0-1.06-.67,2.7,2.7,0,0,0-1.63-.16,2.23,2.23,0,0,0-.7.28h0a3.23,3.23,0,0,0-1.38,1.58s0,0,0,0a5,5,0,0,0-.39,2.33h0v0a3.25,3.25,0,0,0,.08.69,2.93,2.93,0,0,0,.05.29,5.85,5.85,0,0,0,.68,1.74h0a3.65,3.65,0,0,0,3.33,2.06l.3-.05a2.61,2.61,0,0,0,1-.46A4.68,4.68,0,0,0,235.67,154.91Zm-1.42,4a2.08,2.08,0,0,1-1.07.62,3,3,0,0,1-3-1.83s0,0,0,0a3.22,3.22,0,0,1-.31-.68.09.09,0,0,1,0-.07,5,5,0,0,1-.2-.69,5.34,5.34,0,0,1-.09-.53.62.62,0,0,1,0-.13v-.07a4.71,4.71,0,0,1,.32-2.24,2.12,2.12,0,0,1,.11-.21,2.42,2.42,0,0,1,1.41-1.27h0l.14,0,.23,0a2.27,2.27,0,0,1,1.46.38,2.87,2.87,0,0,1,.46.34,4.86,4.86,0,0,1,1.44,2.61A4.28,4.28,0,0,1,234.25,158.91Z" style="fill:#407BFF"></path><path d="M226.55,156.9l-.48-.38c.55-.72,2-1.83,3.31-.9l-.35.51C227.82,155.29,226.61,156.83,226.55,156.9Z" style="fill:#407BFF"></path><path d="M206.81,162.41l-.6-.16c.08-.27.77-2.71,2.06-3.22s9.42-1.48,9.76-1.52l.08.61c-2.36.29-8.68,1.11-9.62,1.48S207,161.74,206.81,162.41Z" style="fill:#407BFF"></path><path d="M213.87,160.24s-3.33-4.54-5.4-3.34.51,7.83,3,8.69a2.5,2.5,0,0,0,3.32-1.42Z" style="fill:#d3766a"></path><path d="M209.26,158.78s0,.05,0,.07a6.31,6.31,0,0,1,3.35,3.88,1.37,1.37,0,0,0-2.07-.33s0,.1.05.09a1.52,1.52,0,0,1,1.7.5,7.5,7.5,0,0,1,.85,1.35c.08.15.36.06.29-.11v0C213.4,162,211.62,159,209.26,158.78Z" style="fill:#263238"></path><path d="M225.05,140.05a21,21,0,0,0-5.84-1.73c-2.26-.29-9.39.27-11.1,1.7s-2.16,8.15-2.21,9.13.4,6.93,2.56,8.36,2.35-8.66,5.74-12S225.05,140.05,225.05,140.05Z" style="fill:#407BFF"></path><path d="M225.05,140.05s-7.45,2.1-10.84,5.45-3.6,13.44-5.76,12a4.79,4.79,0,0,1-1.8-3.15c.45-2.94,1.64-7.52,4.1-10.69,2.3-3,6.26-4.48,10.5-5A23.35,23.35,0,0,1,225.05,140.05Z" style="opacity:0.1"></path><path d="M209.05,163.5c.19-2.69,2.92-9.89,5.79-14s11.3-6.55,12.48-6.48c2.86.16,3.83,1,4.28.77s-2.49-2.4-3.3-2.89-3-1.61-4.22-1.58-8.92.8-11.7,4.07-6.73,12.45-6,14.8c.18.56.93.92,1.17,1.72.31,1.05.53,2.26.85,3S209,163.74,209.05,163.5Z" style="fill:#407BFF"></path><path d="M215.49,147.63a13.7,13.7,0,0,1-1.86-1.37,9.8,9.8,0,0,1-1.59-1.69s-.11,0-.08,0a7.71,7.71,0,0,0,1.45,1.91,6.3,6.3,0,0,0,2,1.24C215.51,147.8,215.57,147.67,215.49,147.63Z" style="fill:#263238"></path><path d="M209,160.82a5.93,5.93,0,0,0-.29-.56,3.12,3.12,0,0,1-.26-.66,5.92,5.92,0,0,0-.3-1.31,5.1,5.1,0,0,0-.63-.89,1.74,1.74,0,0,1-.53-1.09c0-.06-.09-.06-.09,0a4.41,4.41,0,0,0,.9,2.08,8.49,8.49,0,0,1,.37,1.4,2.11,2.11,0,0,0,.71,1.12C209,160.94,209.05,160.88,209,160.82Z" style="fill:#263238"></path><path d="M210,157.91c-.26-.31-.53-.58-.76-.91a7.77,7.77,0,0,1-.58-1c-.17-.34-.31-.69-.47-1s-.44-.79-.61-1.21c0-.05-.1,0-.08,0,.18.43.28.9.45,1.33a8.46,8.46,0,0,0,.51,1.1,6.26,6.26,0,0,0,.64,1,2.93,2.93,0,0,0,.87.77S210,157.93,210,157.91Z" style="fill:#263238"></path><path d="M210.92,155.28a7.65,7.65,0,0,1-1.46-1.65c-.39-.61-.75-1.24-1.1-1.87,0,0-.1,0-.08,0a8.54,8.54,0,0,0,.93,2,4.7,4.7,0,0,0,.68.85,4.93,4.93,0,0,0,1,.67S211,155.31,210.92,155.28Z" style="fill:#263238"></path><path d="M212,152.76a2.6,2.6,0,0,1-.72-.72c-.23-.3-.46-.61-.67-.92s-.43-.6-.63-.9a2.63,2.63,0,0,1-.49-1s-.09,0-.08,0a2.56,2.56,0,0,0,.31,1,6.61,6.61,0,0,0,.61,1.06,9.53,9.53,0,0,0,.75.93,1.64,1.64,0,0,0,.87.59A.06.06,0,0,0,212,152.76Z" style="fill:#263238"></path><path d="M212.75,149.57c-.25-.25-.49-.49-.72-.76s-.45-.53-.66-.81-.45-.58-.65-.88a0,0,0,1,0-.08,0,7.35,7.35,0,0,0,.49,1,9.37,9.37,0,0,0,.65.87,9,9,0,0,0,.74.77,2.79,2.79,0,0,0,.88.61.06.06,0,0,0,.07-.09A5,5,0,0,0,212.75,149.57Z" style="fill:#263238"></path><path d="M217.56,146.1c-.27-.33-.53-.66-.82-1s-.63-.6-1-.87a11.27,11.27,0,0,0-2.09-1.41s-.1,0-.06.07c1.28,1.09,2.6,2.13,3.86,3.23C217.53,146.2,217.59,146.14,217.56,146.1Z" style="fill:#263238"></path><path d="M219.18,143.79a5.69,5.69,0,0,0-.91-.86,12.12,12.12,0,0,0-2.31-1.28,0,0,0,0,0-.05.07c.7.47,1.41.92,2.08,1.42a10.32,10.32,0,0,1,1,.79c.3.28.54.62.83.92a0,0,0,0,0,.05,0A3.1,3.1,0,0,0,219.18,143.79Z" style="fill:#263238"></path><path d="M221.42,142.74a6.29,6.29,0,0,0-.84-.87,7.07,7.07,0,0,0-2-1.15c-.05,0-.08.06,0,.08a13.72,13.72,0,0,1,1.86,1.34c.29.25.57.52.84.78s.52.59.82.82c0,0,0,0,0,0A5.54,5.54,0,0,0,221.42,142.74Z" style="fill:#263238"></path><path d="M223,141.39c-.29-.23-.58-.44-.88-.65a3.44,3.44,0,0,0-.93-.53,0,0,0,0,0,0,.08l1.64,1.34a9.39,9.39,0,0,1,1.26,1.48s.06,0,0,0A3.52,3.52,0,0,0,223,141.39Z" style="fill:#263238"></path><path d="M225.06,141a5.61,5.61,0,0,0-1.8-1.12s-.08.06,0,.08a6.77,6.77,0,0,1,1.64,1.23,9.93,9.93,0,0,1,1.29,1.6s.07,0,0,0A4.58,4.58,0,0,0,225.06,141Z" style="fill:#263238"></path><path d="M227.7,142.16a3.3,3.3,0,0,0-.23-.41,5.17,5.17,0,0,0-.6-.73,9.25,9.25,0,0,0-1.53-1.17s-.09,0,0,.07a8.65,8.65,0,0,1,1.43,1.21,5,5,0,0,1,.57.72,3,3,0,0,1,.24.38,2.88,2.88,0,0,0,.22.38,0,0,0,0,0,.08,0A1.1,1.1,0,0,0,227.7,142.16Z" style="fill:#263238"></path><path d="M229.32,142.31a7.68,7.68,0,0,0-.49-.61,7.14,7.14,0,0,0-.56-.54c-.21-.17-.42-.33-.61-.51a0,0,0,1,0-.06.07,5,5,0,0,1,.57.56l.51.57.5.56a6.93,6.93,0,0,0,.5.58s.07,0,.06,0A3.36,3.36,0,0,0,229.32,142.31Z" style="fill:#263238"></path></g></svg>