<svg width="92" height="76" viewBox="0 0 92 76" fill="none" xmlns="http://www.w3.org/2000/svg">
<path d="M34.3681 75.5C30.4054 75.5 26.3266 75.1791 22.2234 74.5359C14.9964 73.4019 7.68057 69.6216 5.61042 68.4897L0.180908 65.5212L6.05927 63.5881C12.4851 61.4753 16.3939 60.1644 21.2327 58.1117C16.3876 55.7654 12.6535 51.5447 10.8561 46.0886L9.48854 41.9371L10.61 42.1084C9.54657 41.0367 8.70691 39.9488 8.05601 38.9595C5.74116 35.4435 4.51557 31.1473 4.77635 27.4657L5.03363 23.842L7.20306 24.6824C6.28789 22.9541 5.6265 21.1084 5.23778 19.1739C4.29045 14.4561 5.08327 9.44398 7.47083 5.06108L9.3606 1.59195L11.888 4.62761C19.8812 14.2296 30.0055 19.9255 42.0216 21.5929C41.5308 18.2098 41.8985 14.9448 43.1157 12.0182C44.5329 8.6106 47.054 5.72106 50.4042 3.6614C54.1251 1.37452 58.6373 0.266384 63.1097 0.541146C67.8547 0.832687 72.1628 2.6106 75.5844 5.68611C77.2554 5.25194 78.4865 4.78841 80.1505 4.16198C81.1517 3.78515 82.2871 3.35728 83.7077 2.86788L88.9429 1.0641L85.529 10.8143C85.7541 10.7954 85.9862 10.7793 86.2288 10.7688L91.8191 10.5158L88.515 15.0315C88.3255 15.2902 88.2773 15.3636 88.2102 15.465C87.9438 15.8663 87.6124 16.3654 83.0771 22.4214C81.9417 23.9378 81.3747 25.9129 81.4803 27.9837C81.8823 35.8532 80.9167 42.9733 78.6089 49.1453C76.4262 54.9845 73.0437 59.9945 68.5567 64.0362C63.0041 69.0365 55.9239 72.4601 47.5119 74.2108C43.3856 75.0693 38.9544 75.5 34.3681 75.5Z" fill="rgb(203, 203, 203)"/>
</svg>
